
<svg width="24" height="24" viewBox="0 0 24 24" fill="none" xmlns="http://www.w3.org/2000/svg">
<path fill-rule="evenodd" clip-rule="evenodd" d="M15.5088 8.52974C15.7821 5.43679 14.6047 2.89626 12 0.983887C9.39528 2.89649 8.21788 5.43679 8.49114 8.52974C5.61907 7.42286 2.85018 7.83808 0.281982 9.79944C1.38432 12.8371 3.49081 14.6816 6.4545 15.332C4.32488 17.6768 3.74321 20.4158 4.68023 23.5083C7.91151 23.5403 10.3774 22.2139 12 19.5912C13.6228 22.2141 16.0887 23.5405 19.32 23.5083C20.2568 20.4158 19.6751 17.6768 17.5457 15.332C20.5092 14.6816 22.6157 12.8368 23.718 9.79944C21.15 7.83808 18.3809 7.42286 15.5088 8.52974Z" fill="#FFCC2A"/>
<path d="M15.2722 8.50932C15.4053 7.00333 15.186 5.63408 14.6175 4.41132C14.0701 3.23392 13.1966 2.18736 12.0001 1.27959C10.8037 2.18736 9.93013 3.23392 9.38271 4.41132C8.81419 5.63408 8.5949 7.00333 8.72779 8.50932L8.76112 8.88758L8.40577 8.75061C7.00591 8.21112 5.63325 8.04308 4.30006 8.24922C3.02038 8.44719 1.772 8.99076 0.56557 9.88266C1.09758 11.28 1.85137 12.4094 2.8113 13.2697C3.81749 14.1716 5.05476 14.7818 6.50428 15.1002L6.90522 15.1882L6.62969 15.4919C5.59583 16.6303 4.93729 17.8621 4.65087 19.1821C4.37376 20.4593 4.44383 21.8245 4.85792 23.2724C6.35915 23.2636 7.68554 22.9502 8.82802 22.3388C10.0152 21.7036 11.0084 20.7437 11.7983 19.4672L11.9997 19.1418L12.201 19.4672C12.9909 20.7437 13.9841 21.7034 15.1713 22.3388C16.314 22.9502 17.6402 23.2636 19.1414 23.2724C19.5555 21.8245 19.6256 20.4595 19.3484 19.1821C19.062 17.8621 18.4035 16.6303 17.3696 15.4919L17.0939 15.1882L17.4948 15.1002C18.9446 14.7821 20.1816 14.1718 21.1878 13.2697C22.1477 12.4094 22.9015 11.2803 23.4335 9.88266C22.2271 8.99076 20.9787 8.44719 19.699 8.24922C18.3658 8.04308 16.9932 8.21112 15.5933 8.75061L15.238 8.88758L15.2713 8.50932H15.2722ZM15.0479 4.21267C15.6053 5.41139 15.8473 6.73687 15.7713 8.18186C17.1297 7.71381 18.4668 7.57956 19.7721 7.78138C21.1812 7.99931 22.5487 8.6082 23.8617 9.61098L24 9.71643L23.9406 9.87994C23.3789 11.4277 22.5604 12.6751 21.5039 13.6221C20.5256 14.4991 19.3469 15.1154 17.9821 15.471C18.9242 16.5894 19.5335 17.7943 19.8126 19.0815C20.1179 20.4883 20.0281 21.9887 19.5471 23.5768L19.4968 23.743L19.3217 23.7448C17.6676 23.7611 16.2067 23.4289 14.9491 22.7558C13.7862 22.1336 12.8004 21.2222 12.0001 20.028C11.1996 21.2222 10.2138 22.1336 9.05117 22.7558C7.79349 23.4289 6.33262 23.7611 4.67854 23.7448L4.50347 23.743L4.45313 23.5768C3.97192 21.9887 3.88212 20.4883 4.18735 19.0815C4.46674 17.7943 5.07607 16.5894 6.01786 15.471C4.65337 15.1152 3.47438 14.4988 2.49608 13.6221C1.43955 12.6751 0.621129 11.4277 0.0594144 9.87994L0 9.71643L0.138331 9.61098C1.45112 8.6082 2.81878 7.99931 4.22794 7.78138C5.53325 7.57956 6.8703 7.71381 8.22866 8.18186C8.15292 6.73687 8.39489 5.41116 8.95207 4.21267C9.55505 2.91576 10.5254 1.7726 11.86 0.792713L12.0001 0.689758L12.1403 0.792713C13.4746 1.7726 14.4449 2.91576 15.0479 4.21267Z" fill="#1D1819"/>
<path fill-rule="evenodd" clip-rule="evenodd" d="M13.5951 21.5197C13.2829 22.2198 12.7774 22.8309 11.9651 23.3012C11.1571 22.7799 10.5938 22.2003 10.3876 21.5354C10.994 20.9961 11.5322 20.3478 12.0002 19.5915C12.4638 20.3405 12.996 20.9836 13.5951 21.5197ZM15.412 6.13707L15.4118 6.13752C15.5503 6.8929 15.583 7.69023 15.5088 8.52816C16.4422 8.16849 17.3648 7.96961 18.2732 7.9322C18.4519 7.17364 18.4174 6.36951 18.0419 5.49213C17.0758 5.42568 16.2776 5.56968 15.412 6.13684V6.13707ZM8.62041 5.97356L8.62064 5.97402C8.45532 6.77815 8.41201 7.63059 8.49138 8.52974C7.67228 8.21408 6.86179 8.02245 6.06174 7.95487L6.06129 7.95465C5.87715 7.18997 5.90867 6.37926 6.28783 5.49394C7.25388 5.4275 8.05666 5.55721 8.62041 5.97356ZM3.75342 14.3306L3.8278 14.3111C4.60835 14.7789 5.48551 15.1193 6.45451 15.332C5.86762 15.9783 5.39843 16.6545 5.04603 17.3598C4.35686 17.4179 3.64412 17.2945 2.896 16.899C2.9087 15.9307 3.11755 15.147 3.75342 14.3306ZM20.303 14.3306L20.1894 14.3009C19.4046 14.7741 18.5217 15.1177 17.5459 15.332C18.1312 15.9765 18.5995 16.6509 18.9515 17.3544C19.659 17.4247 20.391 17.3058 21.1605 16.899C21.1478 15.9307 20.9389 15.147 20.303 14.3306Z" fill="#FFCC2A"/>
<path d="M13.8113 21.6161C13.6457 21.9871 13.4285 22.3354 13.1439 22.6543C12.8602 22.972 12.5116 23.2584 12.0837 23.5062L11.9581 23.579L11.8367 23.5008C11.4156 23.2291 11.0569 22.9407 10.775 22.6318C10.4847 22.3139 10.275 21.9728 10.1609 21.605L10.1158 21.4594L10.2296 21.3582C10.5242 21.0963 10.8022 20.8079 11.0632 20.4931C11.327 20.1754 11.5721 19.8332 11.7986 19.4674L12 19.142L12.2014 19.4674C12.4257 19.8298 12.6683 20.1688 12.9289 20.4838C13.1892 20.7986 13.4641 21.0854 13.7527 21.3437L13.8816 21.4589L13.8113 21.6165V21.6161ZM12.7912 22.3386C13.0014 22.103 13.1706 21.8476 13.3065 21.5762C13.0443 21.3313 12.7964 21.0678 12.5633 20.7859C12.3672 20.5489 12.1794 20.2963 12 20.0285C11.8181 20.2999 11.6279 20.5555 11.429 20.7952C11.1875 21.0863 10.9322 21.3564 10.6637 21.605C10.763 21.851 10.9197 22.0864 11.126 22.3123C11.3521 22.5601 11.6372 22.7958 11.971 23.0209C12.2985 22.8168 12.5688 22.5878 12.7915 22.3386H12.7912ZM15.1889 6.05678L15.1891 6.05633L15.2819 5.93841C15.7386 5.63907 16.1799 5.45107 16.6362 5.34608C17.0895 5.24176 17.5525 5.22113 18.0573 5.25582L18.2022 5.2658L18.2596 5.39959C18.458 5.86312 18.5664 6.30827 18.6016 6.73846C18.6367 7.1691 18.5986 7.58387 18.5039 7.98616L18.4626 8.16146L18.2821 8.16894C17.843 8.18708 17.3983 8.24445 16.9491 8.34129C16.4994 8.43812 16.0475 8.57418 15.5939 8.74902L15.2386 8.88599L15.2719 8.50774C15.3084 8.09547 15.3186 7.69657 15.303 7.31197C15.2873 6.92441 15.2456 6.54706 15.1785 6.18015L15.1887 6.05678H15.1889ZM15.6719 6.25317C15.7273 6.59196 15.7622 6.93893 15.7765 7.29337C15.7883 7.58568 15.7867 7.88139 15.771 8.18028C16.1332 8.05533 16.4931 7.95441 16.8507 7.87731C17.2609 7.78887 17.6702 7.7315 18.0782 7.70542C18.1347 7.40381 18.1544 7.09449 18.1283 6.77542C18.1004 6.4364 18.0208 6.08535 17.8789 5.72048C17.475 5.70188 17.1022 5.72524 16.7418 5.80801C16.384 5.89033 16.0338 6.03274 15.6719 6.25317ZM8.84017 5.88511L8.8404 5.88557L8.85242 6.02095C8.77237 6.411 8.72157 6.81352 8.70071 7.22783C8.67985 7.64011 8.68892 8.06735 8.72792 8.5091L8.76126 8.88735L8.40591 8.75038C8.00905 8.59754 7.6122 8.47395 7.2158 8.38029C6.82235 8.28731 6.43095 8.22427 6.04203 8.19139L5.91957 8.14399L5.91912 8.14377L5.83091 8.00929C5.73294 7.60246 5.69235 7.18407 5.72636 6.75093C5.76038 6.31757 5.869 5.86879 6.06924 5.40096L6.12662 5.26716L6.27152 5.25718C6.77405 5.22271 7.23644 5.23949 7.64894 5.31977C8.07482 5.40254 8.44877 5.55289 8.76103 5.78329L8.83995 5.88534L8.84017 5.88511ZM8.22744 7.20561C8.24694 6.82191 8.29048 6.44728 8.35828 6.08173C8.1306 5.94113 7.86279 5.8443 7.56027 5.78533C7.22873 5.72093 6.85637 5.70234 6.45045 5.72161C6.3069 6.09034 6.22708 6.44479 6.19986 6.78767C6.17424 7.11354 6.19578 7.4283 6.25542 7.73444C6.60942 7.77209 6.96545 7.83309 7.32352 7.9179C7.62309 7.98866 7.92492 8.07664 8.2288 8.18141C8.21179 7.85123 8.21134 7.52604 8.22744 7.20538V7.20561ZM3.69403 14.1011L3.76841 14.0816L3.86434 14.0566L3.94938 14.1077C4.32809 14.3347 4.73015 14.5308 5.15467 14.6959C5.57964 14.861 6.02979 14.9957 6.50465 15.1L6.90558 15.188L6.62982 15.4916C6.34455 15.8057 6.08716 16.128 5.85789 16.4582C5.62953 16.787 5.42952 17.123 5.25853 17.4655L5.19866 17.585L5.06555 17.5963C4.70113 17.6269 4.32831 17.6095 3.94575 17.5312C3.5659 17.4537 3.17948 17.3167 2.78535 17.1085L2.65723 17.0407L2.65927 16.896C2.66584 16.3894 2.72458 15.9293 2.8654 15.4862C3.00714 15.0404 3.23096 14.6161 3.56681 14.1848L3.69403 14.1013V14.1011ZM4.98391 15.1374C4.58638 14.983 4.20767 14.8029 3.84846 14.5973C3.59901 14.9404 3.42803 15.278 3.31645 15.6288C3.20443 15.9815 3.15068 16.3509 3.13617 16.7548C3.44481 16.9053 3.74596 17.0069 4.04054 17.067C4.32899 17.126 4.61405 17.145 4.89592 17.1314C5.06305 16.8103 5.25377 16.4953 5.4683 16.1867C5.63634 15.9447 5.81957 15.7059 6.01777 15.4708C5.66151 15.3778 5.31681 15.2665 4.98414 15.1372L4.98391 15.1374ZM20.2486 14.0716L20.3623 14.1013L20.4895 14.1848C20.8253 14.6161 21.0489 15.0404 21.1909 15.4862C21.3319 15.9293 21.3904 16.3897 21.397 16.896L21.3988 17.0407L21.2707 17.1085C20.8643 17.3233 20.4672 17.4623 20.0781 17.5383C19.6878 17.6145 19.305 17.6272 18.9281 17.5897L18.7984 17.5768L18.7399 17.4598C18.5705 17.1215 18.3707 16.7863 18.1406 16.4552C17.9117 16.1262 17.655 15.8046 17.3704 15.4914L17.0947 15.1878L17.4956 15.0998C17.9723 14.9952 18.4256 14.8592 18.8542 14.692C19.2812 14.5256 19.6858 14.3272 20.067 14.0975L20.1518 14.0462L20.2489 14.0714L20.2486 14.0716ZM20.1915 14.575C19.8239 14.788 19.4354 14.9744 19.0268 15.1338C18.6916 15.2646 18.3433 15.3771 17.9827 15.4712C18.1802 15.7057 18.3628 15.9434 18.5304 16.1844C18.7431 16.4906 18.9338 16.8053 19.1021 17.1289C19.3917 17.1475 19.6865 17.1312 19.9874 17.0725C20.292 17.0131 20.6026 16.9099 20.9203 16.755C20.9058 16.3511 20.8521 15.9817 20.7401 15.6291C20.626 15.2705 20.4502 14.9258 20.1917 14.575H20.1915Z" fill="#1D1819"/>
<path fill-rule="evenodd" clip-rule="evenodd" d="M11.7504 4.72653H12.1999L12.4484 13.2348H11.5515L11.7504 4.72653Z" fill="#FEFEFE"/>
<path d="M11.7505 4.63695H12.1999H12.2863L12.2888 4.7238L12.5374 13.2321L12.5401 13.3239H12.4483H11.5514H11.4602L11.4622 13.2328L11.6611 4.72448L11.6632 4.63672H11.7502L11.7505 4.63695ZM12.1135 4.81587H11.8376L11.643 13.1454H12.3569L12.1135 4.81587Z" fill="#1D1819"/>
<path fill-rule="evenodd" clip-rule="evenodd" d="M12.041 17.3079L15.1932 17.2929V16.2346L15.0804 16.3813L12.041 16.1813V17.3079Z" fill="#FEFEFE"/>
<path d="M12.1304 17.2192L15.104 17.2051V16.4711L15.0748 16.4692L12.1304 16.2754V17.2192ZM15.1936 17.3809L12.0415 17.3956L11.9519 17.3961V17.3076V16.181V16.0867L12.0467 16.093L15.0387 16.2901L15.1226 16.181L15.2827 15.9728V16.2345V17.2931V17.3806L15.1938 17.3811L15.1936 17.3809Z" fill="#1D1819"/>
<path fill-rule="evenodd" clip-rule="evenodd" d="M13.1762 17.3024L12.1976 17.307C12.1745 17.0414 12.2389 16.5532 12.6997 16.3904C13.0582 16.5452 13.2109 17.0199 13.1759 17.3024H13.1762Z" fill="#FEFEFE"/>
<path d="M13.1764 17.3913L12.1979 17.3959L12.1158 17.3963L12.1088 17.3147C12.0943 17.1469 12.1124 16.8956 12.2312 16.6788C12.3176 16.521 12.456 16.382 12.6703 16.3062L12.7029 16.2946L12.7351 16.3087C12.9172 16.3874 13.051 16.5368 13.1392 16.7058C13.2451 16.9087 13.2859 17.1423 13.2648 17.3133L13.2553 17.3911L13.1766 17.3915L13.1764 17.3913ZM12.2827 17.2176L13.0916 17.2138C13.0909 17.0847 13.0546 16.9282 12.9812 16.7879C12.9156 16.6622 12.8208 16.5509 12.6961 16.487C12.5473 16.5482 12.4496 16.6495 12.387 16.7638C12.3061 16.9119 12.2816 17.0822 12.2825 17.2176H12.2827Z" fill="#1D1819"/>
<path fill-rule="evenodd" clip-rule="evenodd" d="M13.9669 17.304L13.2489 17.3065C13.2269 17.0965 13.2276 16.7568 13.5981 16.582C13.9102 16.7412 14.0492 17.0806 13.9669 17.304Z" fill="#FEFEFE"/>
<path d="M13.9669 17.3929L13.2489 17.3954L13.1686 17.3956L13.1602 17.3156C13.1484 17.2017 13.1428 17.0518 13.1915 16.9035C13.2421 16.7495 13.3487 16.6012 13.56 16.5015L13.5997 16.4826L13.6385 16.5024C13.8059 16.5879 13.929 16.7201 14.0016 16.8625C14.083 17.0217 14.1018 17.1954 14.0503 17.3346L14.029 17.3927L13.9666 17.3929H13.9669ZM13.3315 17.2172L13.8977 17.2153C13.9097 17.1326 13.8907 17.0362 13.8435 16.9437C13.7925 16.8439 13.709 16.75 13.5966 16.6829C13.4639 16.7566 13.395 16.8561 13.3612 16.9586C13.3326 17.0457 13.3278 17.1369 13.3315 17.2174V17.2172Z" fill="#1D1819"/>
<path fill-rule="evenodd" clip-rule="evenodd" d="M14.6987 17.3194L14.0753 17.3215C14.0562 17.1391 14.0567 16.8439 14.3785 16.6922C14.6495 16.8305 14.7703 17.1253 14.6987 17.3194Z" fill="#FEFEFE"/>
<path d="M14.6988 17.4083L14.0754 17.4104L13.9951 17.4106L13.9867 17.3305C13.9763 17.2303 13.9713 17.0988 14.0144 16.9677C14.0593 16.8314 14.1534 16.6999 14.3407 16.6114L14.3804 16.5926L14.4191 16.6124C14.567 16.6879 14.6758 16.8049 14.74 16.9303C14.8119 17.0711 14.8285 17.2255 14.7827 17.3498L14.7613 17.4079L14.699 17.4081L14.6988 17.4083ZM14.1581 17.2321L14.6282 17.2305C14.6355 17.1634 14.6189 17.0861 14.5808 17.0115C14.5384 16.9282 14.4695 16.8498 14.3767 16.7933C14.2683 16.8552 14.2116 16.938 14.1838 17.0228C14.1608 17.0929 14.1559 17.1661 14.1581 17.2321Z" fill="#1D1819"/>
<path fill-rule="evenodd" clip-rule="evenodd" d="M12.7722 13.44L12.0858 14.078C12.0189 13.2214 12.0148 12.1547 12.2098 12.0012C12.3695 11.8755 12.3502 11.6245 12.6078 11.62C12.7341 11.7252 12.5157 12.0057 12.6135 12.0737C12.835 12.2279 12.7679 12.8724 12.7722 13.4403V13.44Z" fill="#FEFEFE"/>
<path d="M12.8334 13.5053L12.1469 14.1432L12.0113 14.2693L11.997 14.0845C11.9598 13.6072 11.9419 13.0638 11.9669 12.6465C11.9882 12.2903 12.0453 12.017 12.1549 11.9306C12.2007 11.8946 12.2306 11.8383 12.2599 11.7839C12.3284 11.6558 12.3934 11.5342 12.6068 11.5304L12.6397 11.5297L12.6651 11.5508C12.7778 11.6447 12.7379 11.781 12.7016 11.905C12.6864 11.9569 12.6574 11.9944 12.6649 11.9996C12.8808 12.1497 12.8731 12.6096 12.8649 13.094C12.8629 13.2092 12.861 13.3262 12.8619 13.4387L12.8622 13.4781L12.8336 13.5047L12.8334 13.5053ZM12.1619 13.8854L12.683 13.401C12.6828 13.2983 12.6846 13.1944 12.6862 13.0917C12.6937 12.6561 12.7005 12.2429 12.5624 12.1467C12.4642 12.0785 12.4957 11.9717 12.53 11.8549C12.5449 11.8036 12.561 11.749 12.5601 11.7154C12.4871 11.7363 12.4528 11.8005 12.4168 11.8676C12.3787 11.9388 12.3392 12.0125 12.2651 12.071C12.2007 12.1216 12.1633 12.3488 12.1449 12.6568C12.1238 13.0117 12.1345 13.4629 12.1619 13.8852V13.8854Z" fill="#1D1819"/>
<path fill-rule="evenodd" clip-rule="evenodd" d="M13.0843 13.3856L12.1983 13.5636C12.1314 12.7071 12.2527 12.159 12.4019 12.0331C12.504 11.9467 12.423 11.6957 12.6249 11.6374C12.8085 11.7426 12.7605 11.9592 12.8582 12.027C13.0798 12.1812 13.0798 12.8178 13.0843 13.3856Z" fill="#FEFEFE"/>
<path d="M13.1017 13.4731L12.2157 13.6512L12.1168 13.6711L12.1089 13.5704C12.0776 13.169 12.0871 12.8327 12.1215 12.5738C12.1637 12.2563 12.2479 12.0461 12.3438 11.9649C12.3606 11.9506 12.3692 11.9045 12.3783 11.856C12.4012 11.7338 12.4259 11.6018 12.5998 11.5517L12.6363 11.5413L12.6688 11.5599C12.8075 11.6392 12.8413 11.7574 12.8701 11.8592C12.8828 11.9041 12.8942 11.9438 12.9087 11.9538C13.1631 12.1306 13.1681 12.7674 13.1726 13.3475L13.1729 13.3849L13.1735 13.4586L13.1012 13.4731H13.1017ZM12.2803 13.4564L12.9944 13.3128C12.9903 12.7871 12.9819 12.2223 12.8069 12.1005C12.74 12.054 12.7205 11.9853 12.6985 11.908C12.6821 11.8506 12.6638 11.7857 12.615 11.7406C12.576 11.7721 12.5647 11.8322 12.554 11.8889C12.5388 11.9696 12.5245 12.0461 12.4592 12.1012C12.3948 12.1556 12.3345 12.3254 12.2984 12.5967C12.2685 12.8218 12.2585 13.111 12.2801 13.4561L12.2803 13.4564Z" fill="#1D1819"/>
<path fill-rule="evenodd" clip-rule="evenodd" d="M12.9979 14.6617L12.0262 15.2916C11.9425 14.4458 11.9371 13.3922 12.1815 13.2407C12.3816 13.1167 12.4693 12.8688 12.792 12.864C12.9503 12.9679 12.6766 13.245 12.799 13.3121C13.0768 13.4643 12.9925 14.1011 12.9979 14.6617Z" fill="#FEFEFE"/>
<path d="M13.0466 14.7363L12.0748 15.3662L11.9522 15.4458L11.9379 15.3002C11.8912 14.8267 11.8685 14.2886 11.8995 13.8766C11.9263 13.5219 11.998 13.2502 12.1347 13.1649V13.1647C12.1923 13.1291 12.2422 13.0785 12.2923 13.0277C12.4148 12.9037 12.5384 12.7785 12.7914 12.7749L12.8189 12.7744L12.8413 12.7892C12.9856 12.8837 12.9332 13.0243 12.8855 13.1522C12.8685 13.1978 12.8318 13.228 12.8425 13.2339C13.1116 13.3815 13.1017 13.8387 13.0915 14.3208C13.089 14.4346 13.0865 14.5498 13.0876 14.6607L13.0881 14.7095L13.047 14.736L13.0466 14.7363ZM12.1014 15.1367L12.9089 14.6133C12.9087 14.5149 12.9109 14.4156 12.913 14.3174C12.9223 13.8908 12.9309 13.4861 12.7563 13.3901C12.632 13.3221 12.6735 13.2112 12.7184 13.0901C12.7375 13.0389 12.7581 12.984 12.7529 12.955C12.5987 12.9706 12.5084 13.062 12.4191 13.1525C12.361 13.2112 12.3032 13.2697 12.2288 13.316H12.2284C12.1472 13.3663 12.1002 13.5886 12.0776 13.8895C12.0503 14.2505 12.0651 14.7109 12.1016 15.1365L12.1014 15.1367Z" fill="#1D1819"/>
<path fill-rule="evenodd" clip-rule="evenodd" d="M13.3886 14.6081L12.2786 14.7839C12.1949 13.938 12.2844 13.3967 12.4711 13.2724C12.599 13.1872 12.56 12.9391 12.8128 12.8817C13.043 12.9856 12.9827 13.1994 13.1051 13.2665C13.3829 13.4187 13.3829 14.0476 13.3884 14.6081H13.3886Z" fill="#FEFEFE"/>
<path d="M13.4028 14.6959L12.2928 14.8717L12.1996 14.8864L12.1903 14.7925C12.149 14.375 12.1494 14.029 12.1826 13.7682C12.2202 13.4725 12.3043 13.2763 12.4223 13.1978C12.4495 13.1793 12.469 13.1337 12.4896 13.0851C12.5393 12.9684 12.5941 12.8398 12.7935 12.7944L12.8225 12.7878L12.8495 12.8001C13.018 12.8761 13.0604 12.9933 13.0967 13.0944C13.1123 13.1378 13.1262 13.1761 13.1479 13.1881C13.4652 13.3618 13.4713 13.9945 13.477 14.5705L13.4774 14.6072L13.4781 14.6839L13.4024 14.6959H13.4028ZM12.3588 14.6812L13.2992 14.5322C13.294 14.0172 13.2831 13.4652 13.0627 13.3446C12.9824 13.3006 12.9577 13.2321 12.9298 13.1548C12.9078 13.0935 12.8824 13.0232 12.8039 12.977C12.7159 13.0092 12.6835 13.0854 12.6538 13.1552C12.6223 13.2291 12.5928 13.2985 12.5211 13.3464L12.5207 13.3468C12.4465 13.3963 12.39 13.5487 12.3592 13.7909C12.3302 14.0192 12.3279 14.3192 12.359 14.6812H12.3588Z" fill="#1D1819"/>
<path fill-rule="evenodd" clip-rule="evenodd" d="M12.0259 16.2257L14.8721 16.3674V15.4803L14.7635 15.6282L12.0259 15.2916V16.2257Z" fill="#FEFEFE"/>
<path d="M12.1152 16.1409L14.783 16.274V15.7207L14.7528 15.717L12.1155 15.3928V16.1411L12.1152 16.1409ZM14.868 16.4565L12.0218 16.3146L11.9368 16.3103V16.2255V15.2916V15.1907L12.0368 15.203L14.7227 15.5331L14.8002 15.4275L14.9615 15.2082V15.4801V16.3672V16.4609L14.868 16.4561V16.4565Z" fill="#1D1819"/>
<path fill-rule="evenodd" clip-rule="evenodd" d="M13.5734 15.684C14.0981 15.7409 14.5131 15.8858 14.5 16.0073C14.4868 16.1289 14.0505 16.1815 13.5255 16.1246C13.0008 16.0677 12.5858 15.9227 12.5989 15.801C12.6121 15.6794 13.0484 15.6268 13.5734 15.684Z" fill="#FEFEFE"/>
<path d="M13.5827 15.5953H13.5829C13.8519 15.6245 14.0941 15.6767 14.2678 15.7372C14.4769 15.8103 14.6002 15.9091 14.5887 16.0166C14.5769 16.1246 14.4349 16.1949 14.2152 16.2214C14.0345 16.2432 13.7895 16.2423 13.5229 16.2137H13.5226L13.5161 16.213C13.2471 16.1838 13.0049 16.1316 12.8312 16.071C12.6221 15.998 12.4987 15.8992 12.5105 15.7914C12.5223 15.6835 12.6641 15.6132 12.884 15.5867C13.0661 15.5649 13.3135 15.5658 13.5829 15.5951L13.5827 15.5953ZM14.2093 15.9055C14.0492 15.8495 13.8236 15.8012 13.5707 15.7733H13.5673L13.561 15.7722C13.3067 15.7447 13.0748 15.7436 12.9051 15.764C12.7725 15.7799 12.6895 15.7967 12.6881 15.8105C12.6865 15.8245 12.7641 15.859 12.8904 15.903C13.0505 15.959 13.2759 16.0073 13.529 16.0352L13.5356 16.0359C13.7909 16.0636 14.0242 16.0649 14.1948 16.0443C14.3274 16.0284 14.4104 16.0116 14.412 15.9978C14.4136 15.9837 14.3361 15.9493 14.2097 15.9053L14.2093 15.9055Z" fill="#1D1819"/>
<path fill-rule="evenodd" clip-rule="evenodd" d="M14.1014 15.529L12.0938 15.2823C12.1341 14.2183 13.4281 14.7632 13.422 14.4444C13.448 14.9131 14.1962 14.6192 14.1014 15.529Z" fill="#FEFEFE"/>
<path d="M14.0905 15.6177L12.0829 15.371L12.0017 15.361L12.0049 15.2791C12.0341 14.5083 12.6326 14.4911 13.0508 14.4791C13.2111 14.4746 13.3335 14.4709 13.3331 14.446L13.5111 14.4396C13.5188 14.5791 13.6277 14.6324 13.7479 14.6914C13.9839 14.807 14.2524 14.9385 14.1901 15.5383L14.1805 15.6288L14.0905 15.6177ZM12.189 15.2041L14.0193 15.429C14.0345 15.0297 13.8411 14.9349 13.6696 14.851C13.5497 14.7923 13.4376 14.7374 13.3775 14.624C13.2961 14.6501 13.1832 14.6533 13.0555 14.6571C12.7224 14.6666 12.2523 14.6802 12.189 15.2043V15.2041Z" fill="#1D1819"/>
<path fill-rule="evenodd" clip-rule="evenodd" d="M14.4378 15.5883L12.4302 15.3415C12.4365 14.5739 13.4826 14.9284 13.4765 14.6097C13.8028 14.9361 14.6165 14.6388 14.4378 15.5885V15.5883Z" fill="#FEFEFE"/>
<path d="M14.4271 15.6769L12.4195 15.4302L12.3406 15.4204L12.3413 15.3408C12.3458 14.797 12.7767 14.7392 13.1123 14.6941C13.2642 14.6737 13.3885 14.6569 13.3876 14.6111L13.3833 14.3902L13.5395 14.5464C13.6307 14.6376 13.7808 14.6741 13.9303 14.7106C14.2963 14.7997 14.66 14.8882 14.5253 15.6048L14.5099 15.6871L14.4271 15.6769ZM12.5252 15.2633L14.3636 15.4894C14.4246 15.014 14.1575 14.949 13.8888 14.8837C13.7579 14.8519 13.6266 14.8199 13.5162 14.7528C13.4441 14.8295 13.3005 14.8487 13.1361 14.8707C12.8866 14.9041 12.5719 14.9465 12.5252 15.2633Z" fill="#1D1819"/>
<path fill-rule="evenodd" clip-rule="evenodd" d="M11.959 17.3079L8.80688 17.2929V16.2346L8.91982 16.3813L11.959 16.1813V17.3079Z" fill="#FEFEFE"/>
<path d="M11.9588 17.3958L8.80667 17.3811L8.71777 17.3806V17.2931V16.2345V15.9728L8.87787 16.181L8.96178 16.2901L11.9538 16.093L12.0486 16.0867V16.181V17.3076V17.3961L11.959 17.3956L11.9588 17.3958ZM8.89624 17.2053L11.8699 17.2194V16.2756L8.9255 16.4695L8.89624 16.4713V17.2053Z" fill="#1D1819"/>
<path fill-rule="evenodd" clip-rule="evenodd" d="M10.824 17.3024L11.8025 17.307C11.8256 17.0414 11.7612 16.5532 11.3004 16.3904C10.9419 16.5452 10.7893 17.0199 10.8242 17.3024H10.824Z" fill="#FEFEFE"/>
<path d="M10.9084 17.214L11.7173 17.2178C11.7182 17.0825 11.6939 16.9121 11.6128 16.7641C11.5502 16.6498 11.4524 16.5484 11.3037 16.4872C11.1789 16.5514 11.0841 16.6627 11.0186 16.7881C10.9454 16.9285 10.9091 17.0849 10.9082 17.214H10.9084ZM11.8023 17.3961L10.8238 17.3915L10.7451 17.3911L10.7356 17.3133C10.7145 17.1423 10.7553 16.9085 10.8612 16.7058C10.9494 16.5368 11.0832 16.3874 11.2653 16.3087L11.2975 16.2946L11.3302 16.3062C11.5445 16.382 11.6828 16.521 11.7692 16.6788C11.8881 16.8956 11.9062 17.1469 11.8917 17.3147L11.8847 17.3963L11.8026 17.3959L11.8023 17.3961Z" fill="#1D1819"/>
<path fill-rule="evenodd" clip-rule="evenodd" d="M10.0333 17.304L10.7513 17.3065C10.7733 17.0965 10.7726 16.7568 10.402 16.582C10.09 16.7412 9.95097 17.0806 10.0333 17.304Z" fill="#FEFEFE"/>
<path d="M10.1025 17.2153L10.6687 17.2172C10.6724 17.1366 10.6676 17.0455 10.639 16.9584C10.6055 16.8561 10.5365 16.7563 10.4036 16.6826C10.2912 16.7498 10.2077 16.8434 10.1567 16.9434C10.1095 17.036 10.0902 17.1326 10.1025 17.2151V17.2153ZM10.7513 17.3954L10.0333 17.3929L9.97096 17.3927L9.94964 17.3346C9.89839 17.1954 9.91722 17.0217 9.9984 16.8625C10.0712 16.7201 10.1943 16.5876 10.3615 16.5024L10.4002 16.4826L10.4399 16.5015C10.6515 16.6012 10.7579 16.7495 10.8084 16.9035C10.8572 17.0518 10.8515 17.2017 10.8397 17.3156L10.8313 17.3956L10.7511 17.3954H10.7513Z" fill="#1D1819"/>
<path fill-rule="evenodd" clip-rule="evenodd" d="M9.30154 17.3194L9.92493 17.3215C9.94398 17.1391 9.94353 16.8439 9.62174 16.6922C9.35075 16.8305 9.22988 17.1253 9.30154 17.3194Z" fill="#FEFEFE"/>
<path d="M9.37171 17.2308L9.84181 17.2323C9.84385 17.1664 9.83909 17.0931 9.81619 17.023C9.78829 16.9382 9.7316 16.8555 9.6232 16.7935C9.53045 16.8502 9.46129 16.9285 9.41888 17.0117L9.41911 17.0119C9.38101 17.0865 9.36446 17.1641 9.37171 17.231V17.2308ZM9.92481 17.4106L9.30141 17.4086L9.23905 17.4083L9.21773 17.3503C9.17193 17.226 9.18848 17.0718 9.26037 16.9307H9.26082C9.325 16.8049 9.43385 16.6881 9.58125 16.6128L9.62003 16.5931L9.65971 16.6119C9.8468 16.7001 9.94114 16.8316 9.98581 16.9682C10.0289 17.099 10.0239 17.2308 10.0135 17.331L10.0051 17.411L9.92481 17.4108V17.4106Z" fill="#1D1819"/>
<path fill-rule="evenodd" clip-rule="evenodd" d="M11.2278 13.44L11.9142 14.078C11.9811 13.2214 11.9852 12.1547 11.7902 12.0012C11.6305 11.8755 11.6498 11.6245 11.3922 11.62C11.2659 11.7252 11.4842 12.0057 11.3865 12.0737C11.1649 12.2279 11.2321 12.8724 11.2278 13.4403V13.44Z" fill="#FEFEFE"/>
<path d="M11.3171 13.401L11.8382 13.8854C11.8656 13.4634 11.8763 13.0121 11.8552 12.6572C11.8368 12.349 11.7992 12.122 11.735 12.0712C11.6606 12.0127 11.6214 11.939 11.5833 11.8678C11.5475 11.8007 11.513 11.7365 11.44 11.7157C11.4391 11.749 11.4552 11.8039 11.4702 11.8551C11.5044 11.9717 11.5359 12.0787 11.4377 12.147C11.2996 12.2431 11.3066 12.6563 11.3139 13.0919C11.3157 13.1947 11.3173 13.2985 11.3171 13.4013V13.401ZM11.8534 14.1432L11.167 13.5053L11.1384 13.4788L11.1386 13.4393C11.1395 13.3269 11.1375 13.2101 11.1357 13.0947C11.1275 12.61 11.1196 12.1504 11.3357 12C11.3432 11.9948 11.3141 11.9574 11.2989 11.9055C11.2624 11.7812 11.2225 11.6451 11.3354 11.5512L11.3608 11.5302L11.3937 11.5308C11.6071 11.5347 11.672 11.656 11.7407 11.7844C11.7697 11.8388 11.7999 11.895 11.8457 11.9311C11.9552 12.0175 12.0126 12.2907 12.0337 12.647C12.0586 13.0643 12.0407 13.6074 12.0035 14.085L11.989 14.2698L11.8534 14.1437V14.1432Z" fill="#1D1819"/>
<path fill-rule="evenodd" clip-rule="evenodd" d="M10.9158 13.3856L11.8018 13.5636C11.8687 12.7071 11.7473 12.159 11.5981 12.0331C11.4961 11.9467 11.577 11.6957 11.3752 11.6374C11.1915 11.7426 11.2396 11.9592 11.1419 12.027C10.9203 12.1812 10.9203 12.8178 10.9158 13.3856Z" fill="#FEFEFE"/>
<path d="M11.0055 13.3128L11.7196 13.4564C11.7412 13.1112 11.7312 12.8221 11.7013 12.5969C11.6652 12.3257 11.6049 12.1558 11.5405 12.1014C11.4752 12.0463 11.4609 11.9699 11.4457 11.8891C11.435 11.8327 11.4237 11.7723 11.3847 11.7408C11.3362 11.7859 11.3176 11.851 11.3012 11.9084C11.2792 11.9857 11.2597 12.0542 11.1928 12.1009C11.0178 12.2227 11.0096 12.7874 11.0053 13.3133L11.0055 13.3128ZM11.7843 13.6512L10.8983 13.4731L10.8259 13.4586L10.8266 13.3849L10.8268 13.3477C10.8314 12.7674 10.8364 12.1306 11.0908 11.9538C11.1053 11.9438 11.1166 11.9041 11.1293 11.8592C11.1584 11.7574 11.1919 11.6395 11.3307 11.5599L11.3632 11.5413L11.3997 11.5517C11.5736 11.6018 11.5983 11.7338 11.6212 11.856C11.6303 11.9045 11.6389 11.9506 11.6557 11.9649C11.7516 12.0461 11.8357 12.256 11.8779 12.5738C11.9124 12.8327 11.9219 13.1688 11.8906 13.5704L11.8827 13.6711L11.784 13.6512H11.7843Z" fill="#1D1819"/>
<path fill-rule="evenodd" clip-rule="evenodd" d="M11.0021 14.6617L11.9738 15.2916C12.0575 14.4458 12.0629 13.3922 11.8185 13.2407C11.6185 13.1167 11.5307 12.8688 11.208 12.864C11.0497 12.9679 11.3234 13.245 11.201 13.3121C10.9232 13.4643 11.0075 14.1011 11.0021 14.6617Z" fill="#FEFEFE"/>
<path d="M11.0913 14.6134L11.8989 15.1367C11.9354 14.7113 11.9501 14.2508 11.9229 13.8897C11.9002 13.5888 11.8531 13.3666 11.7721 13.3162H11.7717C11.697 13.27 11.6392 13.2115 11.5814 13.1527C11.492 13.0622 11.4018 12.9708 11.2476 12.9552C11.2424 12.984 11.263 13.0391 11.2821 13.0904C11.3272 13.2112 11.3685 13.3223 11.2442 13.3904C11.0696 13.4861 11.0782 13.8909 11.0875 14.3176C11.0895 14.4158 11.0918 14.5152 11.0916 14.6136L11.0913 14.6134ZM11.9254 15.3662L10.9537 14.7363L10.9126 14.7097L10.9131 14.661C10.9142 14.5501 10.9117 14.4349 10.9092 14.321C10.8988 13.8389 10.8891 13.3818 11.158 13.2341C11.1684 13.2285 11.1319 13.1981 11.1149 13.1525C11.0673 13.0246 11.0149 12.8842 11.1591 12.7894L11.1816 12.7747L11.209 12.7751C11.4619 12.7788 11.5857 12.9039 11.7082 13.028C11.7583 13.0788 11.8082 13.1294 11.8658 13.165V13.1652C12.0025 13.2502 12.0739 13.5221 12.1009 13.8768C12.132 14.2888 12.1095 14.827 12.0626 15.3005L12.0481 15.4461L11.9254 15.3665V15.3662Z" fill="#1D1819"/>
<path fill-rule="evenodd" clip-rule="evenodd" d="M10.6113 14.6081L11.7214 14.7839C11.8051 13.938 11.7155 13.3967 11.5288 13.2724C11.4009 13.1872 11.44 12.9391 11.1871 12.8817C10.9569 12.9856 11.0173 13.1994 10.8948 13.2665C10.617 13.4187 10.617 14.0476 10.6116 14.6081H10.6113Z" fill="#FEFEFE"/>
<path d="M10.7011 14.5322L11.6415 14.6812C11.6726 14.319 11.6703 14.019 11.6413 13.7909C11.6105 13.5484 11.5538 13.396 11.4798 13.3468L11.4794 13.3464C11.4077 13.2985 11.3782 13.2294 11.3467 13.1552C11.317 13.0854 11.2846 13.0092 11.1966 12.977C11.1181 13.0232 11.0927 13.0935 11.0707 13.1548C11.0429 13.2321 11.0181 13.3006 10.9379 13.3446C10.7174 13.4654 10.7065 14.0172 10.7013 14.5322H10.7011ZM11.7075 14.8717L10.5975 14.6959L10.5217 14.6839L10.5224 14.6072L10.5229 14.5705C10.5285 13.9945 10.5347 13.362 10.8519 13.1881C10.8737 13.1761 10.8875 13.1378 10.9032 13.0944C10.9397 12.9933 10.9821 12.8761 11.1503 12.8001L11.1773 12.7878L11.2064 12.7944C11.4059 12.8398 11.4606 12.9681 11.5102 13.0851C11.5309 13.1337 11.5504 13.1793 11.5776 13.1978C11.6955 13.2763 11.7796 13.4725 11.8173 13.7682C11.8504 14.029 11.8508 14.3748 11.8096 14.7925L11.8003 14.8864L11.7071 14.8717H11.7075Z" fill="#1D1819"/>
<path fill-rule="evenodd" clip-rule="evenodd" d="M11.9741 16.2257L9.12793 16.3674V15.4803L9.23655 15.6282L11.9741 15.2916V16.2257Z" fill="#FEFEFE"/>
<path d="M11.9782 16.3146L9.132 16.4566L9.03857 16.4613V16.3677V15.4805V15.2086L9.19981 15.4279L9.27737 15.5336L11.9633 15.2034L12.0633 15.1912V15.2921V16.2259V16.3107L11.9782 16.315V16.3146ZM9.21704 16.274L11.8848 16.1409V15.3925L9.24743 15.7168L9.21727 15.7204V16.2738L9.21704 16.274Z" fill="#1D1819"/>
<path fill-rule="evenodd" clip-rule="evenodd" d="M10.4267 15.684C9.9019 15.7409 9.48691 15.8858 9.50006 16.0073C9.51321 16.1289 9.94952 16.1815 10.4745 16.1246C10.9993 16.0677 11.4142 15.9227 11.4011 15.801C11.3879 15.6794 10.9516 15.6268 10.4267 15.684Z" fill="#FEFEFE"/>
<path d="M10.4172 15.5953H10.4174C10.6868 15.566 10.9342 15.5649 11.1163 15.5869C11.3361 15.6134 11.478 15.6837 11.4898 15.7917C11.5016 15.8994 11.378 15.9983 11.1691 16.0713C10.9954 16.1318 10.7532 16.184 10.4843 16.2133L10.4777 16.2139H10.4775C10.2106 16.2425 9.96589 16.2434 9.78516 16.2216C9.56541 16.1953 9.42346 16.1248 9.41166 16.0169C9.39987 15.9094 9.52346 15.8103 9.73255 15.7375C9.90625 15.6769 10.1484 15.6248 10.4174 15.5955L10.4172 15.5953ZM10.4296 15.7733C10.1766 15.8012 9.95115 15.8497 9.79105 15.9055C9.66474 15.9495 9.58741 15.984 9.58877 15.998C9.59013 16.0117 9.67313 16.0284 9.80602 16.0445C9.97655 16.0649 10.2097 16.0638 10.4652 16.0361L10.4718 16.0355C10.7249 16.0076 10.9503 15.959 11.1104 15.9033C11.2367 15.8593 11.3141 15.8248 11.3127 15.8107C11.3113 15.7971 11.2283 15.7803 11.0957 15.7642C10.926 15.7438 10.6938 15.745 10.4398 15.7724L10.4335 15.7735H10.4301L10.4296 15.7733Z" fill="#1D1819"/>
<path fill-rule="evenodd" clip-rule="evenodd" d="M9.89868 15.529L11.9063 15.2823C11.8659 14.2183 10.572 14.7632 10.5781 14.4444C10.552 14.9131 9.80389 14.6192 9.89868 15.529Z" fill="#FEFEFE"/>
<path d="M9.98069 15.4291L11.811 15.2041C11.7477 14.6803 11.2776 14.6666 10.9445 14.6569C10.8168 14.6533 10.7039 14.6499 10.6225 14.6238C10.5626 14.7372 10.4506 14.7921 10.3304 14.8508C10.1589 14.9347 9.96549 15.0295 9.98069 15.4288V15.4291ZM11.9171 15.3708L9.90948 15.6175L9.81945 15.6286L9.80993 15.5381C9.74757 14.9385 10.0161 14.8068 10.2521 14.6911C10.3723 14.6322 10.4812 14.5789 10.4889 14.4394L10.6669 14.4458C10.6664 14.4707 10.7889 14.4743 10.9492 14.4789C11.3674 14.4909 11.9659 14.5081 11.9951 15.2789L11.9983 15.3608L11.9171 15.3708Z" fill="#1D1819"/>
<path fill-rule="evenodd" clip-rule="evenodd" d="M9.56221 15.5883L11.5698 15.3415C11.5635 14.5739 10.5174 14.9284 10.5235 14.6097C10.1972 14.9361 9.38351 14.6388 9.56221 15.5885V15.5883Z" fill="#FEFEFE"/>
<path d="M9.63673 15.4891L11.4752 15.2631C11.4285 14.9463 11.1137 14.9039 10.8643 14.8705C10.7001 14.8485 10.5565 14.8292 10.4842 14.7526C10.3737 14.8197 10.2424 14.8517 10.1116 14.8834C9.84287 14.9488 9.57573 15.0138 9.63673 15.4891ZM11.5809 15.43L9.57324 15.6767L9.49046 15.6869L9.47504 15.6046C9.34011 14.888 9.70386 14.7995 10.0701 14.7104C10.2195 14.6741 10.3697 14.6376 10.4608 14.5462L10.6171 14.39L10.6128 14.6109C10.6119 14.6569 10.7361 14.6734 10.8881 14.6939C11.2239 14.739 11.6548 14.7968 11.6591 15.3406L11.6598 15.4202L11.5811 15.43H11.5809Z" fill="#1D1819"/>
<path fill-rule="evenodd" clip-rule="evenodd" d="M11.7068 4.54147H12.2934V4.76734H11.7068V4.54147Z" fill="#FEFEFE"/>
<path d="M11.7068 4.45236H12.2934H12.3828V4.54171V4.76758V4.85692H12.2934H11.7068H11.6174V4.76758V4.54171V4.45236H11.7068ZM12.2041 4.63083H11.7959V4.67823H12.2041V4.63083Z" fill="#1D1819"/>
<path fill-rule="evenodd" clip-rule="evenodd" d="M11.7108 4.21472H12.2893C12.3571 4.21472 12.4126 4.27958 12.4126 4.35872V4.40521C12.4126 4.48458 12.3571 4.54944 12.2893 4.54944H11.7108C11.643 4.54944 11.5874 4.48458 11.5874 4.40521V4.35872C11.5874 4.27958 11.643 4.21472 11.7108 4.21472Z" fill="#FEFEFE"/>
<path d="M11.7107 4.12512H12.2892C12.3504 4.12512 12.4053 4.15347 12.4443 4.19905C12.4802 4.24078 12.5024 4.29747 12.5024 4.35892V4.40541C12.5024 4.46687 12.4802 4.52356 12.4443 4.56529C12.4053 4.61087 12.3504 4.63922 12.2892 4.63922H11.7107C11.6495 4.63922 11.5946 4.61087 11.5556 4.56529C11.5198 4.52356 11.4976 4.46687 11.4976 4.40541V4.35892C11.4976 4.29747 11.5198 4.24078 11.5556 4.19905C11.5946 4.15347 11.6495 4.12512 11.7107 4.12512ZM12.2892 4.3045H11.7107C11.7041 4.3045 11.6973 4.30858 11.6917 4.31538C11.6828 4.32582 11.6772 4.34124 11.6772 4.35892V4.40541C11.6772 4.4231 11.6828 4.43852 11.6917 4.44895C11.6973 4.45553 11.7041 4.45984 11.7107 4.45984H12.2892C12.2958 4.45984 12.3026 4.45576 12.3083 4.44895C12.3171 4.43852 12.3228 4.4231 12.3228 4.40541V4.35892C12.3228 4.34124 12.3171 4.32582 12.3083 4.31538C12.3026 4.30881 12.2958 4.3045 12.2892 4.3045Z" fill="#1D1819"/>
<path fill-rule="evenodd" clip-rule="evenodd" d="M12.2892 4.2147H11.7107C11.7492 3.6006 12.232 3.64619 12.2892 4.2147Z" fill="#FEFEFE"/>
<path d="M12.2892 4.30406H11.7107H11.6157L11.6216 4.20927C11.6364 3.97411 11.7141 3.8199 11.8132 3.74303C11.8659 3.70243 11.9248 3.68225 11.9849 3.68225C12.0441 3.68225 12.1028 3.70153 12.1563 3.73962C12.2645 3.81673 12.3543 3.97524 12.3775 4.2061L12.3872 4.30406H12.2888H12.2892ZM11.8101 4.12559H12.1851C12.1586 4.00563 12.1094 3.92467 12.0534 3.88476C12.0305 3.86843 12.0069 3.86004 11.9851 3.86004C11.9643 3.86004 11.9427 3.86798 11.9221 3.88385C11.872 3.92263 11.83 4.002 11.8101 4.12536V4.12559Z" fill="#1D1819"/>
<path fill-rule="evenodd" clip-rule="evenodd" d="M8.43359 17.3351H15.5663V17.6471H8.43359V17.3351Z" fill="#FEFEFE"/>
<path d="M8.43359 17.2457H15.5663H15.6556V17.3351V17.6471V17.7365H15.5663H8.43359H8.34424V17.6471V17.3351V17.2457H8.43359ZM15.4771 17.4244H8.52293V17.5578H15.4771V17.4244Z" fill="#1D1819"/>
<path fill-rule="evenodd" clip-rule="evenodd" d="M8.03857 17.6263H15.9615V17.9381H8.03857V17.6263Z" fill="#FEFEFE"/>
<path d="M8.03857 17.5369H15.9615H16.0509V17.6262V17.9381V18.0274H15.9615H8.03857H7.94922V17.9381V17.6262V17.5369H8.03857ZM15.8722 17.7156H8.12792V17.8489H15.8722V17.7156Z" fill="#1D1819"/>
<path fill-rule="evenodd" clip-rule="evenodd" d="M7.60181 17.895H16.3981V18.2293H7.60181V17.895Z" fill="#FEFEFE"/>
<path d="M7.6018 17.8056H16.3981H16.4874V17.895V18.2292V18.3186H16.3981H7.6018H7.51245V18.2292V17.895V17.8056H7.6018ZM16.3087 17.9846H7.69115V18.1399H16.3087V17.9846Z" fill="#1D1819"/>
<path fill-rule="evenodd" clip-rule="evenodd" d="M7.10278 18.1864H16.8973V18.4789H7.10278V18.1864Z" fill="#FEFEFE"/>
<path d="M7.10278 18.097H16.8973H16.9866V18.1864V18.4789V18.5683H16.8973H7.10278H7.01343V18.4789V18.1864V18.097H7.10278ZM16.808 18.2755H7.1919V18.3894H16.808V18.2755Z" fill="#1D1819"/>
<path fill-rule="evenodd" clip-rule="evenodd" d="M6.58301 18.4995H17.4173V18.7907H6.58301V18.4995Z" fill="#FEFEFE"/>
<path d="M6.58307 18.4104H17.4173H17.5058V18.4998V18.791V18.8803H17.4173H6.58307H6.49463V18.791V18.4998V18.4104H6.58307ZM17.3289 18.5889H6.67151V18.7014H17.3289V18.5889Z" fill="#1D1819"/>
<path d="M6.95987 15.2955L6.9356 15.1424L7.49822 15.0533C7.58576 15.0395 7.64245 15.0288 7.66808 15.0207C7.71298 15.0066 7.74563 14.9848 7.76695 14.9556C7.78781 14.9261 7.79507 14.8905 7.78849 14.8488C7.78282 14.8134 7.76922 14.7859 7.74813 14.7662C7.72704 14.7467 7.69982 14.7354 7.66694 14.7322C7.63451 14.729 7.56625 14.7356 7.46285 14.7519L6.88821 14.8429L6.86394 14.6893L7.40955 14.6029C7.54879 14.5809 7.65084 14.5716 7.71479 14.5748C7.77919 14.5784 7.83407 14.6002 7.88011 14.6406C7.92614 14.6809 7.95494 14.7395 7.96696 14.8156C7.97943 14.8948 7.97331 14.9592 7.94837 15.0089C7.92365 15.0583 7.88396 15.0975 7.82931 15.1268C7.77466 15.156 7.66966 15.1828 7.5141 15.2075L6.95987 15.2953V15.2955ZM12.6954 9.48808L12.8448 9.50169C12.8308 9.63639 12.8691 9.7144 12.9598 9.73527C13.0045 9.7457 13.0428 9.74048 13.0748 9.71939C13.1068 9.69876 13.1272 9.66837 13.1362 9.62891C13.1417 9.60555 13.1419 9.58469 13.1367 9.56632C13.1315 9.54773 13.1208 9.53117 13.1047 9.51643C13.0888 9.50169 13.0485 9.47402 12.9836 9.43298C12.9256 9.39647 12.8845 9.362 12.8614 9.32957C12.8378 9.29737 12.8222 9.25814 12.8144 9.21256C12.8067 9.16675 12.8086 9.11981 12.8197 9.07196C12.8326 9.01617 12.8553 8.96832 12.8877 8.92864C12.9204 8.88918 12.9589 8.86242 13.0031 8.84836C13.0476 8.83475 13.0984 8.83453 13.1562 8.84768C13.2426 8.86764 13.3038 8.90982 13.3399 8.9749C13.3762 9.03953 13.3841 9.1223 13.3639 9.22276L13.2133 9.19759C13.2195 9.1409 13.2142 9.09917 13.1977 9.07218C13.1811 9.04543 13.1528 9.02751 13.1129 9.01821C13.073 9.00891 13.0399 9.01141 13.014 9.02547C12.9879 9.03953 12.9716 9.06062 12.965 9.08942C12.9587 9.11731 12.963 9.14294 12.9782 9.16652C12.9934 9.19033 13.0335 9.22163 13.0988 9.26063C13.1678 9.30281 13.2156 9.34114 13.2426 9.37606C13.2696 9.41098 13.2868 9.45225 13.2945 9.4992C13.302 9.54637 13.2988 9.60079 13.2845 9.66225C13.2639 9.75114 13.2226 9.82031 13.161 9.86997C13.099 9.91941 13.017 9.93256 12.9151 9.90897C12.7349 9.86748 12.6616 9.7271 12.6954 9.48808ZM13.5276 10.0877L13.6864 9.67426L13.6469 9.00665L13.8134 9.0706L13.8299 9.52278L14.142 9.19691L14.3055 9.25973L13.8277 9.73028L13.6694 10.1423L13.5276 10.0879V10.0877ZM13.9721 10.3045L14.498 9.39352L14.6295 9.46949L14.1036 10.3804L13.9721 10.3045ZM14.7765 10.8455L14.6425 10.7483L14.7295 10.516L14.486 10.3389L14.2953 10.4956L14.1642 10.4004L15.02 9.72211L15.1507 9.8169L14.7765 10.8453V10.8455ZM14.7942 10.3442L14.9398 9.96748L14.6277 10.2233L14.7942 10.3444V10.3442ZM14.8241 10.9265L15.5808 10.1958L15.6863 10.3051L15.3885 10.5927L15.596 10.8077L15.8938 10.5201L15.9997 10.6299L15.2432 11.3605L15.1373 11.2508L15.4681 10.9313L15.2604 10.7163L14.9296 11.0358L14.8241 10.9265ZM15.4908 11.7472L16.4018 11.2213L16.4777 11.3528L16.0732 11.5864L16.6317 11.6197L16.7344 11.7975L16.2376 11.7563L15.8312 12.3366L15.7326 12.1658L16.0562 11.739L15.8421 11.72L15.5668 11.8789L15.4908 11.7474V11.7472ZM16.8331 12.0694L16.8825 12.213L16.3439 12.3985C16.26 12.4273 16.2063 12.4477 16.1822 12.4599C16.1403 12.4813 16.1119 12.5082 16.0961 12.5404C16.0804 12.5726 16.0793 12.6082 16.0927 12.6475C16.104 12.6806 16.1219 12.7049 16.1462 12.7203C16.1702 12.7352 16.1988 12.7416 16.2317 12.7389C16.2643 12.7364 16.3301 12.718 16.4292 12.6838L16.9793 12.4944L17.029 12.6386L16.5065 12.8185C16.3732 12.8645 16.2745 12.8913 16.2108 12.8994C16.1471 12.9074 16.0893 12.896 16.0373 12.865C15.9852 12.8339 15.9471 12.7826 15.9224 12.711C15.8967 12.6366 15.892 12.5731 15.9083 12.5209C15.9242 12.4688 15.9568 12.4237 16.0058 12.3858C16.0548 12.3479 16.1537 12.3035 16.3024 12.2522L16.8331 12.0694ZM16.153 13.8101L16.1301 13.6462L16.3575 13.5475L16.3156 13.2493L16.0702 13.221L16.0478 13.0607L17.1304 13.2051L17.1528 13.3648L16.1532 13.8101H16.153ZM16.526 13.4745L16.8982 13.3176L16.4975 13.2706L16.526 13.4745ZM16.1385 13.9056L17.1816 13.9238L17.1789 14.0757L16.3131 14.0605L16.3065 14.4394L16.1292 14.4363L16.1385 13.9054V13.9056ZM16.0099 15.2189L16.0357 15.0553L16.282 15.0275L16.3292 14.7299L16.1029 14.6311L16.1283 14.4712L17.1213 14.9259L17.0961 15.0853L16.0099 15.2189ZM16.4648 15.007L16.8666 14.9655L16.497 14.8036L16.4648 15.007ZM7.88079 14.3632L6.82902 14.3816L6.8263 14.2303L7.52317 13.9033L6.82085 13.9156L6.81836 13.7711L7.87013 13.7528L7.87285 13.909L7.19231 14.2306L7.87807 14.2186L7.88056 14.363L7.88079 14.3632ZM7.89485 13.5915L6.85328 13.445L6.87483 13.2917L7.91639 13.4382L7.89485 13.5915ZM7.96991 13.1031L6.88322 13.1339L6.92109 12.9697L7.72341 12.9554L7.00703 12.5969L7.04422 12.4359L8.00733 12.9405L7.96991 13.1026V13.1031ZM8.10643 12.5935L7.14537 12.1656L7.37758 11.644L7.54018 11.7164L7.371 12.0964L7.58394 12.1912L7.74132 11.8379L7.90301 11.91L7.74586 12.2633L8.00733 12.3797L8.18217 11.9867L8.34408 12.0588L8.1062 12.5933L8.10643 12.5935ZM8.40146 11.9381L7.51931 11.3653L7.69756 11.0911C7.74314 11.0211 7.78373 10.9759 7.81911 10.9562C7.85448 10.9365 7.89802 10.9295 7.9495 10.9358C8.00143 10.9419 8.05427 10.9628 8.10869 10.9982C8.17763 11.0431 8.22389 11.0939 8.2468 11.1506C8.2697 11.2075 8.2688 11.2667 8.2443 11.3279C8.2849 11.3147 8.32435 11.3075 8.36291 11.3068C8.40146 11.3059 8.46563 11.312 8.55498 11.3254L8.7779 11.359L8.67721 11.5141L8.42368 11.4839C8.33252 11.4728 8.27401 11.4676 8.24861 11.4687C8.22321 11.4694 8.2028 11.4746 8.18738 11.4839C8.17196 11.4932 8.1545 11.5129 8.13523 11.5429L8.11777 11.5699L8.48604 11.8091L8.40168 11.939L8.40146 11.9381ZM7.97671 11.4776L8.03953 11.3807C8.07785 11.3218 8.0994 11.2823 8.10393 11.2626C8.10869 11.2426 8.10552 11.222 8.09418 11.2004C8.08307 11.1791 8.06266 11.1587 8.03341 11.1397C8.00529 11.1213 7.97943 11.1118 7.95585 11.1106C7.93227 11.1095 7.91163 11.1156 7.89417 11.1288C7.88192 11.1379 7.85675 11.1719 7.81888 11.2302L7.75266 11.3322L7.97626 11.4776H7.97671ZM8.56156 11.0771L8.65227 10.9539C8.76089 11.0351 8.8482 11.0417 8.91396 10.9734C8.94639 10.9399 8.96227 10.9038 8.9609 10.8653C8.96 10.8267 8.9448 10.7936 8.91555 10.7653C8.89832 10.7487 8.8804 10.7378 8.86203 10.7328C8.84344 10.7278 8.82348 10.7288 8.80239 10.7351C8.7813 10.7415 8.73617 10.7623 8.66655 10.7979C8.60442 10.8299 8.55317 10.8478 8.51303 10.8514C8.47266 10.8555 8.43094 10.8489 8.3874 10.8324C8.34408 10.8156 8.30463 10.7902 8.26925 10.756C8.22798 10.7161 8.19895 10.6718 8.18194 10.6233C8.16516 10.5748 8.16244 10.5274 8.174 10.4818C8.1858 10.436 8.21233 10.3915 8.25428 10.3482C8.3171 10.2831 8.38581 10.2514 8.46064 10.2534C8.53548 10.255 8.61077 10.2904 8.68651 10.3593L8.58537 10.4775C8.53979 10.4433 8.50124 10.4265 8.46926 10.4269C8.43751 10.4276 8.40713 10.443 8.3781 10.4732C8.34907 10.5031 8.33365 10.5333 8.33206 10.5632C8.33025 10.5931 8.34 10.6181 8.36109 10.6385C8.38173 10.6585 8.40599 10.6675 8.43434 10.6664C8.46291 10.6655 8.51099 10.6462 8.57902 10.6097C8.65181 10.5711 8.71009 10.5492 8.75432 10.5435C8.79854 10.5378 8.84321 10.5439 8.88766 10.5614C8.93233 10.5789 8.97723 10.6097 9.02259 10.6535C9.08835 10.717 9.126 10.7882 9.13597 10.8673C9.14595 10.9467 9.11375 11.0247 9.03959 11.1013C8.90875 11.237 8.7491 11.229 8.56133 11.0771H8.56156ZM9.33236 10.7834L8.6847 9.95456L8.8067 9.85931L9.45436 10.6882L9.33236 10.7834ZM9.71855 10.5009L9.24256 9.76792L9.05093 9.89242L8.95387 9.7432L9.46638 9.4103L9.56344 9.55952L9.37227 9.68356L9.84827 10.4165L9.71832 10.5009H9.71855ZM10.686 10.0006L10.5318 10.0693L10.373 9.87836L10.0925 10.0033L10.1317 10.2475L9.98093 10.3147L9.82672 9.23183L9.97707 9.16493L10.6862 10.0006H10.686ZM10.2555 9.73685L10.0002 9.42323L10.0639 9.82212L10.2558 9.73663L10.2555 9.73685ZM10.6522 9.64909L10.7953 9.59512C10.842 9.72234 10.9118 9.77541 11.0041 9.75409C11.0497 9.74343 11.0826 9.72189 11.1025 9.68878C11.1227 9.6559 11.1279 9.61984 11.1189 9.58015C11.1134 9.5568 11.1044 9.53797 11.0914 9.52391C11.0785 9.50963 11.0613 9.49942 11.0402 9.4933C11.0191 9.48718 10.9699 9.48015 10.8923 9.47198C10.8229 9.46495 10.7701 9.45225 10.7343 9.43321C10.6984 9.41461 10.6667 9.38649 10.6395 9.34885C10.6123 9.3112 10.593 9.26834 10.5821 9.22027C10.5692 9.16448 10.5687 9.11142 10.581 9.0613C10.5934 9.01141 10.6168 8.97036 10.6515 8.93816C10.6862 8.90619 10.7329 8.88351 10.7916 8.8699C10.8799 8.84949 10.9547 8.86038 11.0164 8.90279C11.0783 8.94474 11.1223 9.01549 11.1479 9.11459L10.9987 9.15858C10.9792 9.10507 10.956 9.06992 10.9288 9.05314C10.9018 9.03658 10.8678 9.03273 10.8272 9.04202C10.7866 9.05132 10.7574 9.06833 10.7397 9.09237C10.722 9.11663 10.7163 9.14271 10.7229 9.17128C10.7295 9.19918 10.7447 9.22027 10.7692 9.23478C10.7937 9.24952 10.8445 9.25973 10.9214 9.26607C11.0032 9.27333 11.0642 9.28671 11.1044 9.30599C11.1445 9.32549 11.1785 9.35474 11.2064 9.39352C11.2343 9.43253 11.2554 9.48287 11.2694 9.54432C11.2899 9.63345 11.2828 9.71372 11.2479 9.78561C11.213 9.8575 11.1436 9.90557 11.0397 9.92938C10.856 9.97179 10.7266 9.87836 10.6519 9.64864L10.6522 9.64909Z" fill="#1D1819"/>
</svg>
